<svg width="1em" height="1em" viewBox="0 0 20 20" fill="none" xmlns="http://www.w3.org/2000/svg">
    <g clip-path="url(#clip0_18575_1864)">
        <g clip-path="url(#clip1_18575_1864)">
            <path d="M9.99967 18.9993C14.97 18.9993 18.9993 14.97 18.9993 9.99967C18.9993 5.02929 14.97 1 9.99967 1C5.02929 1 1 5.02929 1 9.99967C1 14.97 5.02929 18.9993 9.99967 18.9993Z" fill="#787E89"></path>
            <path d="M9.61785 8.44348C10.9306 8.44348 12.2433 8.44348 13.556 8.44348C14.545 8.44348 15.3996 9.20114 15.5026 10.1862C15.5615 10.7512 15.3949 11.2535 15.0104 11.6768C14.6353 12.0894 14.1632 12.296 13.6101 12.3308C13.5152 12.3368 13.4215 12.3401 13.3266 12.3314C13.1908 12.3194 13.0972 12.3903 13.037 12.508C12.9822 12.6156 12.928 12.7233 12.8638 12.8256C12.1938 13.8869 11.2462 14.5309 10.003 14.7342C9.7001 14.7836 9.39583 14.809 9.09023 14.7923C8.45227 14.7582 7.85777 14.579 7.31343 14.2426C6.73967 13.8882 6.25418 13.4395 5.88304 12.8744C5.53797 12.3488 5.34538 11.7684 5.28453 11.1438C5.22969 10.5827 5.25511 10.0197 5.26112 9.45726C5.2638 9.21652 5.25912 8.97512 5.28319 8.73438C5.30192 8.5458 5.35274 8.47959 5.54132 8.45151C5.58679 8.44482 5.6336 8.44348 5.67974 8.44348C6.99245 8.44348 8.30515 8.44348 9.61785 8.44348ZM13.4563 11.0094C13.4463 11.1672 13.4944 11.2173 13.6502 11.1986C13.9271 11.1658 14.1351 11.0241 14.2735 10.7847C14.4327 10.5105 14.3992 10.2357 14.2521 9.97017C14.1163 9.72475 13.9024 9.59302 13.6195 9.58298C13.5285 9.57964 13.4944 9.61241 13.4784 9.70135C13.4737 9.72877 13.473 9.75752 13.473 9.78561C13.473 9.95479 13.4764 10.124 13.4831 10.2938C13.4924 10.5326 13.473 10.7706 13.455 11.0087" fill="white"></path>
            <path d="M12.3199 5.21627C12.4517 5.21627 12.4878 5.25439 12.4918 5.38746C12.5139 6.09029 12.2611 6.68412 11.7569 7.1656C11.3563 7.54744 10.8715 7.75073 10.3171 7.78818C10.0998 7.80289 9.88244 7.81827 9.66511 7.81559C9.25986 7.81158 8.85462 7.79687 8.44937 7.78483C8.3163 7.78082 8.27082 7.73334 8.27149 7.59492C8.27617 7.03653 8.4487 6.537 8.80246 6.10099C9.19232 5.62085 9.69052 5.33129 10.3037 5.24168C10.4221 5.22429 11.1657 5.20223 11.2861 5.2029C11.5395 5.20423 12.021 5.2156 12.3206 5.21627" fill="white"></path>
        </g>
    </g>
    <defs>
        <clipPath id="clip0_18575_1864">
            <rect width="20" height="20" fill="white"></rect>
        </clipPath>
        <clipPath id="clip1_18575_1864">
            <rect width="18" height="18" fill="white" transform="translate(1 1)"></rect>
        </clipPath>
    </defs>
</svg>